HIERARCHY
ROOT hip
{
  OFFSET 0 0 0
  CHANNELS 6 Xposition Yposition Zposition Zrotation Yrotation Xrotation
  JOINT abdomen
  {
    OFFSET 0 20.6881 -0.73152
    CHANNELS 3 Zrotation Xrotation Yrotation
    JOINT chest
    {
      OFFSET 0 11.7043 -0.48768
      CHANNELS 3 Zrotation Xrotation Yrotation
      JOINT neck
      {
        OFFSET 0 22.1894 -2.19456
        CHANNELS 3 Zrotation Xrotation Yrotation
        JOINT head
        {
          OFFSET -0.24384 7.07133 1.2192
          CHANNELS 3 Zrotation Xrotation Yrotation
          JOINT leftEye
          {
            OFFSET 4.14528 8.04674 8.04672
            CHANNELS 3 Zrotation Xrotation Yrotation
            End Site
            {
              OFFSET 1 0 0
            }
          }
          JOINT rightEye
          {
            OFFSET -3.6576 8.04674 8.04672
            CHANNELS 3 Zrotation Xrotation Yrotation
            End Site
            {
              OFFSET 1 0 0
            }
          }
        }
      }
      JOINT rCollar
      {
        OFFSET -2.68224 19.2634 -4.8768
        CHANNELS 3 Zrotation Xrotation Yrotation
        JOINT rShldr
        {
          OFFSET -8.77824 -1.95073 1.46304
          CHANNELS 3 Zrotation Xrotation Yrotation
          JOINT rForeArm
          {
            OFFSET -28.1742 -1.7115 0.48768
            CHANNELS 3 Zrotation Xrotation Yrotation
            JOINT rHand
            {
              OFFSET -22.5879 0.773209 7.07136
              CHANNELS 3 Zrotation Xrotation Yrotation
              JOINT rThumb1
              {
                OFFSET -1.2192 -0.487915 3.41376
                CHANNELS 3 Zrotation Xrotation Yrotation
                JOINT rThumb2
                {
                  OFFSET -3.37035 -0.52449 3.41376
                  CHANNELS 3 Zrotation Xrotation Yrotation
                  End Site
                  {
                    OFFSET -1.78271 -1.18214 1.43049
                  }
                }
              }
              JOINT rIndex1
              {
                OFFSET -7.75947 0.938293 5.60832
                CHANNELS 3 Zrotation Xrotation Yrotation
                JOINT rIndex2
                {
                  OFFSET -2.54057 -0.884171 1.56538
                  CHANNELS 3 Zrotation Xrotation Yrotation
                  End Site
                  {
                    OFFSET -1.62519 -0.234802 1.16502
                  }
                }
              }
              JOINT rMid1
              {
                OFFSET -8.24714 1.18213 3.41376
                CHANNELS 3 Zrotation Xrotation Yrotation
                JOINT rMid2
                {
                  OFFSET -3.10165 -0.590103 1.0647
                  CHANNELS 3 Zrotation Xrotation Yrotation
                  End Site
                  {
                    OFFSET -2.48547 -0.328903 0.83742
                  }
                }
              }
              JOINT rRing1
              {
                OFFSET -8.82822 0.546677 1.51678
                CHANNELS 3 Zrotation Xrotation Yrotation
                JOINT rRing2
                {
                  OFFSET -2.60934 -0.819778 -0.0198488
                  CHANNELS 3 Zrotation Xrotation Yrotation
                  End Site
                  {
                    OFFSET -2.33842 -0.294052 0.168128
                  }
                }
              }
              JOINT rPinky1
              {
                OFFSET -8.27202 -0.0477905 -0.4584
                CHANNELS 3 Zrotation Xrotation Yrotation
                JOINT rPinky2
                {
                  OFFSET -1.82734 -0.647385 -0.700984
                  CHANNELS 3 Zrotation Xrotation Yrotation
                  End Site
                  {
                    OFFSET -1.69225 -0.51767 -0.607171
                  }
                }
              }
            }
          }
        }
      }
      JOINT lCollar
      {
        OFFSET 2.68224 19.2634 -4.8768
        CHANNELS 3 Zrotation Xrotation Yrotation
        JOINT lShldr
        {
          OFFSET 8.77824 -1.95073 1.46304
          CHANNELS 3 Zrotation Xrotation Yrotation
          JOINT lForeArm
          {
            OFFSET 28.1742 -1.7115 0.48768
            CHANNELS 3 Zrotation Xrotation Yrotation
            JOINT lHand
            {
              OFFSET 22.5879 0.773209 7.07136
              CHANNELS 3 Zrotation Xrotation Yrotation
              JOINT lThumb1
              {
                OFFSET 1.2192 -0.487915 3.41376
                CHANNELS 3 Zrotation Xrotation Yrotation
                JOINT lThumb2
                {
                  OFFSET 3.37035 -0.52449 3.41376
                  CHANNELS 3 Zrotation Xrotation Yrotation
                  End Site
                  {
                    OFFSET 1.78271 -1.18214 1.43049
                  }
                }
              }
              JOINT lIndex1
              {
                OFFSET 7.75947 0.938293 5.60832
                CHANNELS 3 Zrotation Xrotation Yrotation
                JOINT lIndex2
                {
                  OFFSET 2.54057 -0.884171 1.56538
                  CHANNELS 3 Zrotation Xrotation Yrotation
                  End Site
                  {
                    OFFSET 1.62519 -0.234802 1.16502
                  }
                }
              }
              JOINT lMid1
              {
                OFFSET 8.24714 1.18213 3.41376
                CHANNELS 3 Zrotation Xrotation Yrotation
                JOINT lMid2
                {
                  OFFSET 3.10165 -0.590103 1.0647
                  CHANNELS 3 Zrotation Xrotation Yrotation
                  End Site
                  {
                    OFFSET 2.48547 -0.328903 0.83742
                  }
                }
              }
              JOINT lRing1
              {
                OFFSET 8.82822 0.546677 1.51678
                CHANNELS 3 Zrotation Xrotation Yrotation
                JOINT lRing2
                {
                  OFFSET 2.60934 -0.819778 -0.0198488
                  CHANNELS 3 Zrotation Xrotation Yrotation
                  End Site
                  {
                    OFFSET 2.33842 -0.294052 0.168128
                  }
                }
              }
              JOINT lPinky1
              {
                OFFSET 8.27202 -0.0477905 -0.4584
                CHANNELS 3 Zrotation Xrotation Yrotation
                JOINT lPinky2
                {
                  OFFSET 1.82734 -0.647385 -0.700984
                  CHANNELS 3 Zrotation Xrotation Yrotation
                  End Site
                  {
                    OFFSET 1.69225 -0.51767 -0.607171
                  }
                }
              }
            }
          }
        }
      }
    }
  }
  JOINT rButtock
  {
    OFFSET -8.77824 4.35084 1.2192
    CHANNELS 3 Zrotation Xrotation Yrotation
    JOINT rThigh
    {
      OFFSET 0 -1.70687 -2.19456
      CHANNELS 3 Zrotation Xrotation Yrotation
      JOINT rShin
      {
        OFFSET 0 -36.8199 0.73152
        CHANNELS 3 Zrotation Xrotation Yrotation
        JOINT rFoot
        {
          OFFSET 0.73152 -45.1104 -5.12064
          CHANNELS 3 Zrotation Xrotation Yrotation
          End Site
          {
            OFFSET -1.1221 -3.69964 12.103
          }
        }
      }
    }
  }
  JOINT lButtock
  {
    OFFSET 8.77824 4.35084 1.2192
    CHANNELS 3 Zrotation Xrotation Yrotation
    JOINT lThigh
    {
      OFFSET 0 -1.70687 -2.19456
      CHANNELS 3 Zrotation Xrotation Yrotation
      JOINT lShin
      {
        OFFSET 0 -36.8199 0.73152
        CHANNELS 3 Zrotation Xrotation Yrotation
        JOINT lFoot
        {
          OFFSET -0.73152 -45.1104 -5.12064
          CHANNELS 3 Zrotation Xrotation Yrotation
          End Site
          {
            OFFSET 1.1221 -3.69964 12.103
          }
        }
      }
    }
  }
}
MOTION
Frames:	8
Frame Time:	0.03333
-0.8463999999999999 59.465500000000006 6.877 -8.476998 -22.369538 4.153652 1.092936 11.813547 26.90002 -4.395683 -11.474021 -7.124597 1.10245 9.964265 9.18631 6.185569 -21.032265 19.683448 -5.663129 -0.014246 0.288021 -13.838307 0.533666 -4.395522 -154.580831 -11.834193 168.479388 141.697253 -21.756728 179.358683 -175.28999 -8.339066 34.624784 -130.77989 37.732909 122.102468 -19.707663 23.407532 6.362283 -148.658325 -48.861037 105.552784 -17.744969 11.425467 5.184852 5.205741 26.235286 5.283034 -162.318743 -12.23234 147.551615 -154.441873 29.374046 135.875408 10.348631 -2.134412 -1.696897 175.059458 85.965619 -168.895318 95.900292 81.752289 -61.244518 -151.586085 21.611469 -151.194172 -1.193533 0.28721 -1.000569 100.821162 -1.12439 -135.12394 -175.48953 13.698196 88.933633 14.77446 52.92345 -8.380657 8.716764 12.183766 -1.203197 120.322857 -8.957315 -99.63044 18.149965 20.161633 -13.139319 9.387948 49.521647 -14.990065 155.625064 10.726154 -142.552996 165.150376 -63.770884 -159.165307 3.831835 0.052518 -2.208781 -25.715478 40.290448 6.811109 143.729887 -8.615225 136.310276 121.270481 -35.8272 117.625915 148.229817 70.567079 29.267513 173.25679 33.237535 -2.37818 103.47998 78.109108 -51.014935 -39.319637 14.251978 -70.2623 -1.098127 2.72531 -2.26948 89.024926 -43.312135 -0.851718 -84.897546 13.547575 138.583211 -111.373205 17.840567 26.606858
-0.8389000000000001 59.1949 6.9018 -8.641436 -22.342491 4.473093 0.433735 8.140348 128.525476 -8.052639 3.701622 -108.031648 -2.514611 29.204666 -146.154356 12.226648 39.785651 172.108564 -5.876624 0.001927 -0.03755 -13.497834 0.701762 -5.924906 -0.486892 16.702101 -1.228656 58.398842 20.608402 17.033021 -10.964405 11.606334 114.245948 -27.906902 -73.066129 -28.745957 4.812114 0.945566 -2.496313 -35.146731 24.639566 29.408931 8.779248 -33.066502 -4.913448 -178.114978 -60.8604 111.055072 1.154184 -5.282084 -4.472274 -162.274262 -16.36149 144.429058 10.743051 -0.23968 -1.570218 -163.485725 6.386579 -176.386513 4.733539 22.328845 -0.889359 -146.395104 29.805102 -151.267502 -2.122819 -5.130036 0.178934 -69.557089 3.032344 -39.123647 151.953634 16.55971 -46.71248 -131.544646 -57.957239 -119.366955 143.034362 16.0097 -86.454677 139.529184 -4.12592 -74.731975 159.222581 -28.015573 -120.207772 167.002507 4.038464 -105.767279 164.483153 -20.006773 -147.994887 16.985596 61.090172 -17.93512 4.708165 -3.345346 -1.309916 -27.304318 37.633325 8.882257 64.832644 -53.099706 56.205313 -20.822114 47.785466 -4.472039 -18.710585 6.739427 -20.404963 20.265996 -42.092288 -97.931812 -105.020539 -9.032451 -59.314995 -154.632811 49.080047 -98.616665 -173.320106 72.700558 -3.339216 -136.635683 -7.066658 -61.928581 -85.565492 28.59048 141.138096 -99.788057 27.23829 18.642013
-0.6507 59.480599999999995 7.0707 -8.206642 -22.320724 3.716717 1.329797 8.074389 159.929274 -3.838223 7.317581 -140.174803 11.817054 17.526143 80.146163 -27.65852 -2.85344 -52.6977 -5.839517 -0.088629 1.73757 -12.264888 0.592632 -5.511632 -0.68379 16.406256 -0.781881 63.768885 0.697103 14.284476 172.426066 -30.708267 27.939249 -118.508806 44.174629 108.522992 177.396342 -24.648668 91.129191 -11.068191 -53.069898 -5.699322 -91.260034 42.339401 65.972492 -15.160815 24.072561 17.602674 -179.886728 -66.996962 144.475337 -0.12206 8.246971 -0.618725 9.965489 3.032596 -0.461054 9.412002 46.311898 -6.840841 4.360463 21.037122 -1.166276 -144.333303 22.968717 -150.090664 -2.097392 -2.09276 -0.238941 -84.003656 -14.961745 -40.450881 -176.35324 6.373873 -54.741353 -158.926913 -32.520102 -142.600893 7.393726 11.743764 -0.577842 111.331759 -1.42134 -90.47321 135.334545 9.185218 -110.080463 162.896528 -8.228941 -97.882219 -3.197609 -13.434257 5.010408 -32.026455 -45.372728 -17.528926 2.229157 -4.734336 -0.699691 140.767271 -32.543426 169.926472 14.928635 -24.343069 6.7833 14.294587 -23.970688 17.695839 79.3345 32.565183 43.723944 -115.546533 11.360732 -123.313801 -104.20017 17.25057 -118.683717 148.606432 -5.151022 169.301951 172.128933 72.837161 6.471699 -133.000032 -9.723605 -131.115844 -89.563867 -49.229295 -8.787545 84.141623 -56.637278 -179.718194
-0.437 59.960899999999995 7.2771 -7.892505 -22.163892 3.078303 -0.067164 11.956761 58.640311 -8.911755 -8.028232 -39.53479 12.797624 20.410968 93.98983 -30.433726 5.495698 -65.44244 -3.407827 -0.125458 4.215496 -11.287408 0.479069 -4.844989 0.879493 4.096574 -3.580884 -111.861125 -25.203103 175.091596 -174.461833 -24.378907 -70.127838 -19.323664 -59.18618 -15.687317 -163.795765 -3.711007 92.40116 22.367948 -60.559372 22.287363 -147.516072 9.412937 112.467252 -176.352162 -12.381476 106.884986 -140.805265 36.016811 131.283332 19.623773 -42.513998 1.815377 -135.969741 -5.06161 -176.776444 13.821973 -3.029663 1.941377 -0.631361 11.100857 -3.583162 -5.676282 -32.40064 -10.667754 8.682771 35.301444 -12.766496 -78.903818 -16.438005 -73.505993 10.791276 -27.09974 -84.466488 6.4461 32.072707 -3.881033 132.068054 23.617082 -81.103557 -43.30681 -54.638551 -30.030113 171.783427 -43.855549 -116.510004 125.494365 41.377411 -82.523128 0.430468 3.7251 1.007697 -2.363457 -10.090367 -8.654076 144.868946 -19.15883 175.861 162.103833 24.28967 -168.589852 -0.626589 14.018477 -8.645686 161.052362 47.619547 140.45492 -43.934301 21.082867 -36.634054 60.621279 -27.237575 -38.523957 -100.385684 38.103946 -166.238765 104.497416 69.124662 148.624753 0.233917 2.649104 -0.043807 85.455026 -45.73997 -7.766031 -93.052201 7.178837 -134.215944 -83.483371 -33.42094 172.573134
-0.23879999999999998 60.2386 7.4645 -7.725393 -22.046665 2.768856 1.203616 8.515244 164.934927 -2.981432 7.690984 -145.086896 9.448558 14.384545 53.61248 -20.512599 -13.717102 -29.472247 -2.779891 -0.11133 4.585862 -11.016271 0.419943 -4.352723 -127.999788 61.928449 133.576752 80.912217 -34.154742 91.478224 -176.336976 -9.566603 34.218993 -130.910379 38.238846 120.882907 -166.96088 -7.553747 92.575108 139.080853 -49.277947 95.049461 31.787992 -63.031853 3.681886 -73.690708 67.822154 59.581644 3.282037 -5.144528 -1.885221 -177.329374 -49.333338 144.061702 -12.199003 63.221564 34.179765 -64.333782 -77.044092 -89.841042 -163.779407 36.638332 -138.502372 5.356363 37.123947 6.298748 6.381162 29.970289 -10.545313 94.153245 10.083976 -108.621438 171.807292 17.142449 92.313735 10.407029 40.831416 -5.04362 82.210669 39.518082 -48.292382 107.008386 -5.658782 -70.532888 -177.079803 -54.056041 -110.960222 29.301396 26.91935 -5.866341 17.548918 39.1547 -14.078235 -169.929475 -40.642832 -139.399374 0.104222 -31.886902 8.229477 91.182914 -73.128211 115.057124 -4.732626 25.024749 -11.011838 8.968543 -22.982712 15.071293 -18.250543 7.076925 -19.967922 18.438162 -41.107167 17.250496 127.265654 74.187625 136.633486 97.142156 50.050706 17.988218 158.38456 72.337736 15.913796 -132.333252 -10.006671 80.786176 87.179307 0.455545 -4.607458 -144.59871 18.381672 65.538681
-0.0906 60.3837 7.6042 -7.720347 -22.015241 2.806781 -0.323086 9.488728 120.919536 -9.089168 2.693324 -100.891292 -8.352348 19.708264 -65.971029 33.928989 3.876279 92.596083 -2.54171 -0.070182 3.162806 -11.172453 0.380013 -3.88382 2.217069 -28.019905 -10.084359 -114.898361 -7.441188 -160.134641 -157.302989 -50.807044 -54.844343 -23.711674 -71.679305 -25.049279 4.547822 -0.758143 -2.859006 30.513895 -56.001416 -20.253695 -158.080138 -6.976553 119.070931 -70.761887 48.680659 39.693116 -8.940384 24.32183 6.004742 -142.572482 38.020012 133.025791 -137.620063 -4.743018 -175.754324 -149.050258 21.466836 167.306692 -156.573303 16.929778 -135.455577 -32.525508 -36.261489 -25.343201 -7.856099 -51.227063 8.010148 -69.644372 -7.249522 7.376219 168.135626 -14.191906 -56.254643 -149.724739 -47.28357 -133.988721 -18.197914 -14.414715 1.253572 33.89277 23.777207 -21.175916 145.004673 -6.204863 -113.738272 -3.83453 -2.221739 -10.884379 -3.379327 -3.84946 1.523792 -5.636586 -19.293389 -9.70269 137.938477 33.587873 -166.305279 -8.951882 -12.947377 -1.461925 -10.83797 53.424412 -16.426678 148.888191 19.708823 143.333644 -32.848458 13.444772 -29.360514 42.433699 -36.744019 131.569177 103.007526 -36.048634 25.125678 52.656815 66.724092 -171.025379 -178.929451 73.544996 0.13378 -136.550241 -5.375517 -70.769259 -85.519602 23.620169 168.860081 2.739422 -35.609458 -89.390038
0.010799999999999999 60.3885 7.697800000000001 -7.772839 -22.076268 3.015294 1.1869 12.883366 13.075951 -2.085458 -12.49498 6.371042 11.74944 17.812127 78.857127 -27.830956 -2.28853 -53.391512 -2.752524 -0.048568 2.02134 -11.661209 0.347014 -3.397246 -137.813144 52.972935 143.715667 96.295117 -35.372288 107.467266 172.789337 -6.218359 31.80687 -116.278182 45.78478 105.743899 81.316591 -52.280298 28.582247 -82.410075 37.29925 44.519804 -170.954665 -31.648904 123.366393 -159.446371 18.194731 115.130853 -156.157661 8.302873 141.651969 -6.653293 16.507061 6.744447 -137.865055 -1.2466 -176.524308 6.484665 46.668797 11.060265 8.276275 40.636453 1.111983 8.683341 2.103364 8.014662 -7.585526 -53.233914 8.693929 -71.998513 14.579397 7.925242 179.807077 10.66061 -54.433781 -157.855973 -36.25761 -140.777168 17.015467 19.147669 -5.551534 -10.535598 -14.416664 -2.336739 4.372599 4.389281 -6.278625 163.500899 -59.05415 -123.225171 -6.907834 -15.953039 3.481836 159.947218 10.659744 -127.835346 -2.172164 -8.032423 0.77622 -15.707151 -8.104217 10.247278 -8.795676 37.468684 -12.083265 133.955523 -20.188105 131.312483 5.320239 2.240535 -2.240637 -21.4148 -41.267848 -36.048367 -142.293163 83.947384 -146.546468 -176.812603 68.483776 75.67131 5.278864 1.970848 2.213298 78.421061 -48.732821 -6.264259 -82.766945 1.58114 21.228089 136.143926 29.169075 -68.38761
0.053200000000000004 60.165400000000005 7.742100000000001 -7.9425 -22.380956 3.519679 1.221168 7.872006 163.236222 -3.126814 7.243415 -143.214256 12.253931 22.196749 107.456061 -30.193051 12.241156 -77.979334 -3.442748 -0.051123 1.700975 -12.441354 0.371983 -3.411695 1.323562 -5.514947 -5.185477 62.597738 4.694728 -3.235246 155.986525 -23.453883 16.790042 -91.173811 49.458755 79.951797 0.145603 5.772322 -1.823356 -138.772807 -38.666304 117.184993 -153.32256 -0.238118 117.722406 -32.1595 32.350658 11.091833 139.060606 -81.645194 109.354502 -18.153566 44.460101 9.984957 -136.999209 -7.185311 -174.694233 -129.462545 60.873039 147.964492 -25.917139 -22.939278 -19.508894 -149.433134 38.355995 -143.441361 -2.002674 -1.100002 -0.676409 100.609446 -0.436566 -138.483118 -7.565478 -19.541981 122.820638 -157.794761 -35.757044 -141.09248 -0.473375 3.376255 0.879714 101.87518 13.550778 -88.37633 108.444252 30.770057 -89.910277 155.964351 -16.441522 -98.880656 169.032881 -41.010795 -147.046824 -2.878721 37.856367 -6.636829 -1.041905 -3.21155 -0.715821 117.422477 85.834098 -139.005832 26.431378 -38.846254 23.051214 139.450775 -6.837555 138.26085 -11.199344 4.331053 -14.212944 6.951734 -42.679585 -19.367118 -156.201483 81.26673 -102.840959 -100.40786 -34.704543 -157.93048 -148.441039 72.520832 -20.98385 -144.767047 -1.270936 -99.005019 -88.060891 -10.933005 -177.2034 -147.28167 27.777123 72.026654
